<svg xmlns="http://www.w3.org/2000/svg" xmlns:xlink="http://www.w3.org/1999/xlink" width="2500" zoomAndPan="magnify" viewBox="0 0 1874.88 1124.99995" height="1500" preserveAspectRatio="xMidYMid meet" version="1.2"><defs><clipPath id="8abbdc657b"><path d="M 1358 488.851562 L 1410 488.851562 L 1410 513 L 1358 513 Z M 1358 488.851562 "/></clipPath><clipPath id="9e87f68a38"><path d="M 1357.253906 515 L 1410.5 515 L 1410.5 635.089844 L 1357.253906 635.089844 Z M 1357.253906 515 "/></clipPath></defs><g id="4b09ccda99"><g style="fill:#9cad96;fill-opacity:1;"><g transform="translate(857.115185, 634.495321)"><path style="stroke:none" d="M 71.5 -146.734375 C 86.832031 -146.734375 100.265625 -143.625 111.796875 -137.40625 C 123.335938 -131.1875 132.21875 -122.550781 138.4375 -111.5 C 144.65625 -100.445312 147.765625 -87.875 147.765625 -73.78125 C 147.765625 -59.820312 144.65625 -47.25 138.4375 -36.0625 C 132.21875 -24.875 123.335938 -16.066406 111.796875 -9.640625 C 100.265625 -3.210938 86.832031 0 71.5 0 L 10.359375 0 L 10.359375 -146.734375 Z M 67.359375 -41.03125 C 77.722656 -41.03125 85.941406 -43.863281 92.015625 -49.53125 C 98.097656 -55.195312 101.140625 -63.28125 101.140625 -73.78125 C 101.140625 -84.28125 98.097656 -92.363281 92.015625 -98.03125 C 85.941406 -103.695312 77.722656 -106.53125 67.359375 -106.53125 L 56.375 -106.53125 L 56.375 -41.03125 Z M 67.359375 -41.03125 "/></g></g><g clip-rule="nonzero" clip-path="url(#8abbdc657b)"><path style=" stroke:none;fill-rule:nonzero;fill:#333333;fill-opacity:1;" d="M 1360.621094 493.539062 L 1361.445312 493.539062 L 1372.351562 512.207031 L 1395.199219 512.207031 L 1406.105469 493.539062 L 1406.929688 493.539062 C 1408.21875 493.539062 1409.277344 492.484375 1409.277344 491.195312 C 1409.277344 489.902344 1408.21875 488.847656 1406.929688 488.847656 L 1360.617188 488.847656 C 1359.328125 488.847656 1358.273438 489.902344 1358.273438 491.195312 C 1358.273438 492.480469 1359.332031 493.539062 1360.617188 493.539062 Z M 1360.621094 493.539062 "/></g><g clip-rule="nonzero" clip-path="url(#9e87f68a38)"><path style=" stroke:none;fill-rule:nonzero;fill:#333333;fill-opacity:1;" d="M 1394.996094 515.671875 L 1372.558594 515.671875 L 1357.253906 606.867188 L 1383.777344 635.019531 L 1410.296875 606.867188 Z M 1394.996094 515.671875 "/></g><g style="fill:#333333;fill-opacity:1;"><g transform="translate(1000.742699, 634.495321)"><path style="stroke:none" d="M 186.734375 -146.734375 L 186.734375 0 L 140.9375 0 L 140.9375 -73.15625 L 118.34375 0 L 78.96875 0 L 56.375 -73.15625 L 56.375 0 L 10.359375 0 L 10.359375 -146.734375 L 66.734375 -146.734375 L 99.0625 -58.65625 L 130.5625 -146.734375 Z M 186.734375 -146.734375 "/></g></g><g style="fill:#9cad96;fill-opacity:1;"><g transform="translate(605.366389, 633.933445)"><path style="stroke:none" d="M 146.109375 -146.734375 L 146.109375 0 L 100.109375 0 L 100.109375 -57.203125 L 56.375 -57.203125 L 56.375 0 L 10.359375 0 L 10.359375 -146.734375 L 56.375 -146.734375 L 56.375 -93.890625 L 100.109375 -93.890625 L 100.109375 -146.734375 Z M 146.109375 -146.734375 "/></g></g><g style="fill:#333333;fill-opacity:1;"><g transform="translate(750.236783, 633.933445)"><path style="stroke:none" d="M 56.375 -110.046875 L 56.375 -92.015625 L 101.96875 -92.015625 L 101.96875 -57.40625 L 56.375 -57.40625 L 56.375 -36.6875 L 108.1875 -36.6875 L 108.1875 0 L 10.359375 0 L 10.359375 -146.734375 L 108.1875 -146.734375 L 108.1875 -110.046875 Z M 56.375 -110.046875 "/></g></g><g style="fill:#333333;fill-opacity:1;"><g transform="translate(458.483508, 633.933445)"><path style="stroke:none" d="M 99.0625 0 L 56.375 -63.625 L 56.375 0 L 10.359375 0 L 10.359375 -146.734375 L 56.375 -146.734375 L 56.375 -84.96875 L 98.4375 -146.734375 L 150.46875 -146.734375 L 99.890625 -76.46875 L 153.78125 0 Z M 99.0625 0 "/></g></g><g style="fill:#9cad96;fill-opacity:1;"><g transform="translate(1187.480739, 634.495321)"><path style="stroke:none" d="M 151.078125 0 L 105.078125 0 L 56.375 -73.78125 L 56.375 0 L 10.359375 0 L 10.359375 -146.734375 L 56.375 -146.734375 L 105.078125 -71.703125 L 105.078125 -146.734375 L 151.078125 -146.734375 Z M 151.078125 0 "/></g></g></g></svg>